# File created by Blade
# Date/Time:  Tue Jan 27 17:08:52 2015
# Frame Rate: 120.000 fps
#------------------------------------------------------
:FULLY-SPECIFIED
:DEGREES
3644
root 0.333310 39.148970 -0.485732 49.503792 -22.854282 -56.231945
Spine 0.853950 17.944827 22.944857
Head -14.777100 -32.824399 31.007372
LeftShoulder -8.751521 -5.992276 13.390627
LeftArm -26.490827 -49.182969 -30.485879
LeftForeArm 3.651492 -0.000000 141.547517
LeftHand -26.575629 -0.000000 26.037034
LeftHandThumb1 -26.253704 0.000000 33.147579
RightShoulder -0.045109 -19.946299 1.187258
RightArm 27.088169 -24.631587 48.897270
RightForeArm 156.914205 -0.000000 73.501966
RightHand 1.919066 -0.000000 3.456310
RightHandThumb1 -24.326973 -0.000000 -32.862282
LeftUpLeg -25.412221 22.813921 41.063363
LeftLeg 22.334724 -0.000000 -0.000000
LeftFoot -21.425603 11.838454 -13.426555
LeftToeBase 14.431098 -0.000000 -0.000000
RightUpLeg -48.059228 -24.771680 -16.313525
RightLeg 91.854597 -0.000000 -0.000000
RightFoot -1.793358 -9.347943 8.064729
RightToeBase 4.730729 -0.000000 -0.000000
3645
root 0.313794 39.151787 -0.505416 49.373511 -22.413328 -56.195800
Spine 0.917098 17.852079 23.309426
Head -15.000983 -32.946474 31.111431
LeftShoulder -8.659127 -6.089578 13.403887
LeftArm -26.523479 -49.285922 -30.534896
LeftForeArm 3.460844 -0.000000 141.710122
LeftHand -26.541363 -0.000000 25.910198
LeftHandThumb1 -26.253704 0.000000 33.147579
RightShoulder -0.058136 -19.855308 1.175816
RightArm 27.057521 -24.529751 48.810060
RightForeArm 156.854772 -0.000000 73.623463
RightHand 1.894167 -0.000000 3.397409
RightHandThumb1 -24.326973 -0.000000 -32.862282
LeftUpLeg -25.643716 22.830201 41.274876
LeftLeg 22.384878 -0.000000 -0.000000
LeftFoot -21.356870 11.590955 -13.337337
LeftToeBase 14.416044 -0.000000 -0.000000
RightUpLeg -47.812700 -24.770215 -16.585421
RightLeg 92.187756 -0.000000 -0.000000
RightFoot -1.253629 -8.935719 7.467126
RightToeBase 4.749550 -0.000000 -0.000000
3646
root 0.298238 39.144329 -0.534194 49.413512 -22.194982 -56.037300
Spine 0.681396 17.883414 23.209157
Head -15.097939 -33.068593 31.365758
LeftShoulder -8.561440 -6.074500 13.524920
LeftArm -26.537815 -49.457569 -30.490733
LeftForeArm 3.252272 -0.000000 141.799795
LeftHand -26.498211 -0.000000 25.899488
LeftHandThumb1 -26.253704 0.000000 33.147579
RightShoulder -0.059810 -19.819934 1.309081
RightArm 27.012710 -24.422059 48.810752
RightForeArm 156.688308 0.000000 73.724493
RightHand 1.849293 -0.000000 3.347856
RightHandThumb1 -24.326973 -0.000000 -32.862282
LeftUpLeg -26.015987 22.955996 41.212445
LeftLeg 22.483623 -0.000000 -0.000000
LeftFoot -21.346769 11.354886 -13.323887
LeftToeBase 14.448832 -0.000000 -0.000000
RightUpLeg -47.906922 -24.833097 -16.951256
RightLeg 92.633244 -0.000000 -0.000000
RightFoot -0.681839 -8.553461 7.008706
RightToeBase 4.787223 -0.000000 -0.000000
3647
root 0.283681 39.139729 -0.557623 49.303631 -21.872408 -55.946404
Spine 0.725736 17.783153 23.408102
Head -15.305744 -33.103469 31.484705
LeftShoulder -8.284906 -6.209016 13.533626
LeftArm -27.284523 -49.734521 -29.828221
LeftForeArm 2.804044 0.000000 141.930361
LeftHand -26.418603 -0.000000 25.965422
LeftHandThumb1 -26.253704 0.000000 33.147579
RightShoulder -0.026259 -19.747409 1.323379
RightArm 27.027310 -24.294471 48.744317
RightForeArm 156.545574 -0.000000 73.805170
RightHand 1.778214 -0.000000 3.363069
RightHandThumb1 -24.326973 -0.000000 -32.862282
LeftUpLeg -26.284140 23.008216 41.284371
LeftLeg 22.591798 -0.000000 -0.000000
LeftFoot -21.306096 11.124732 -13.194800
LeftToeBase 14.430986 -0.000000 -0.000000
RightUpLeg -47.790951 -24.872856 -17.235550
RightLeg 93.060294 -0.000000 -0.000000
RightFoot -0.030096 -8.150162 6.779689
RightToeBase 4.700527 -0.000000 -0.000000
3648
root 0.263820 39.137577 -0.574458 49.136835 -21.540076 -55.927847
Spine 0.898306 17.656960 23.712700
Head -15.561756 -33.084327 31.608461
LeftShoulder -8.266934 -6.285734 13.513415
LeftArm -27.369339 -49.906721 -29.680205
LeftForeArm 2.570172 -0.000000 141.972154
LeftHand -26.429458 -0.000000 25.940688
LeftHandThumb1 -26.253704 0.000000 33.147579
RightShoulder -0.010447 -19.688458 1.334221
RightArm 27.085171 -24.179041 48.624610
RightForeArm 156.492982 -0.000000 73.907964
RightHand 1.922529 0.000000 3.551871
RightHandThumb1 -24.326973 -0.000000 -32.862282
LeftUpLeg -26.419637 23.014569 41.470360
LeftLeg 22.668300 -0.000000 -0.000000
LeftFoot -21.268313 10.904119 -13.131375
LeftToeBase 14.400384 -0.000000 -0.000000
RightUpLeg -47.588858 -24.861911 -17.442314
RightLeg 93.474475 -0.000000 -0.000000
RightFoot 0.549674 -7.787124 6.767155
RightToeBase 4.746170 -0.000000 -0.000000
3649
root 0.246845 39.132561 -0.596113 49.037515 -21.249809 -55.892304
Spine 0.966318 17.577106 23.913156
Head -15.742837 -33.103300 31.766785
LeftShoulder -8.267608 -6.340117 13.533421
LeftArm -27.373591 -50.081085 -29.564494
LeftForeArm 2.269938 -0.000000 141.953465
LeftHand -26.356761 -0.000000 25.798530
LeftHandThumb1 -26.253704 0.000000 33.147579
RightShoulder -0.003758 -19.602374 1.378025
RightArm 27.114989 -24.056715 48.539214
RightForeArm 156.173909 -0.000000 74.000856
RightHand 1.932531 -0.000000 3.470814
RightHandThumb1 -24.326973 -0.000000 -32.862282
LeftUpLeg -26.626197 23.057906 41.594536
LeftLeg 22.786691 -0.000000 -0.000000
LeftFoot -21.261353 10.721882 -13.035924
LeftToeBase 14.410604 -0.000000 -0.000000
RightUpLeg -47.514878 -24.877198 -17.618771
RightLeg 93.941555 -0.000000 -0.000000
RightFoot 1.224025 -7.406614 6.682088
RightToeBase 4.727748 -0.000000 -0.000000
3650
root 0.230872 39.126287 -0.617310 48.932022 -20.969921 -55.848028
Spine 1.034193 17.478992 24.105004
Head -15.875479 -33.058047 31.892814
LeftShoulder -8.273085 -6.296932 13.534584
LeftArm -27.276569 -50.317482 -29.502801
LeftForeArm 2.123043 -0.000000 141.881871
LeftHand -26.364802 -0.000000 25.814478
LeftHandThumb1 -26.253704 0.000000 33.147579
RightShoulder 0.001429 -19.530230 1.416044
RightArm 27.181975 -23.977116 48.434279
RightForeArm 156.058828 -0.000000 74.044997
RightHand 1.930002 -0.000000 3.538729
RightHandThumb1 -24.326973 -0.000000 -32.862282
LeftUpLeg -26.828394 23.062314 41.711402
LeftLeg 22.904117 -0.000000 -0.000000
LeftFoot -21.248645 10.584274 -12.939707
LeftToeBase 14.379471 -0.000000 -0.000000
RightUpLeg -47.444004 -24.891347 -17.763737
RightLeg 94.418388 -0.000000 -0.000000
RightFoot 1.855223 -7.045070 6.607324
RightToeBase 4.586781 -0.000000 -0.000000
3651
root 0.209217 39.122767 -0.636556 48.810469 -20.674240 -55.846437
Spine 1.133887 17.375178 24.357668
Head -16.016797 -33.031632 31.973966
LeftShoulder -8.235883 -6.433467 13.567637
LeftArm -27.492774 -50.432903 -29.183410
LeftForeArm 1.692258 -0.000000 141.772853
LeftHand -26.290650 -0.000000 25.880199
LeftHandThumb1 -26.253704 0.000000 33.147579
RightShoulder 0.021075 -19.462827 1.447270
RightArm 27.215426 -23.867429 48.361939
RightForeArm 155.853479 -0.000000 74.092680
RightHand 1.933740 -0.000000 3.641918
RightHandThumb1 -24.326973 -0.000000 -32.862282
LeftUpLeg -26.975011 23.097988 41.875849
LeftLeg 22.992858 -0.000000 -0.000000
LeftFoot -21.228411 10.415333 -12.833410
LeftToeBase 14.324858 -0.000000 -0.000000
RightUpLeg -47.345193 -24.874049 -17.847875
RightLeg 94.918040 -0.000000 -0.000000
RightFoot 2.418367 -6.662386 6.619353
RightToeBase 4.550386 -0.000000 -0.000000
3652
root 0.186984 39.121300 -0.652283 48.684133 -20.352274 -55.868186
Spine 1.242149 17.255903 24.659328
Head -16.088291 -33.015403 32.058074
LeftShoulder -8.187186 -6.329567 13.488590
LeftArm -27.594035 -50.688199 -28.810660
LeftForeArm 1.331541 -0.000000 141.639966
LeftHand -26.237626 -0.000000 26.011727
LeftHandThumb1 -26.253704 0.000000 33.147579
RightShoulder 0.079729 -19.426989 1.445197
RightArm 27.198949 -23.685725 48.374609
RightForeArm 155.626833 0.000000 74.155026
RightHand 1.962964 -0.000000 3.681678
RightHandThumb1 -24.326973 -0.000000 -32.862282
LeftUpLeg -27.090862 23.063939 42.101063
LeftLeg 23.072253 -0.000000 -0.000000
LeftFoot -21.212426 10.270278 -12.774387
LeftToeBase 14.250475 -0.000000 -0.000000
RightUpLeg -47.221199 -24.855883 -17.836978
RightLeg 95.415400 -0.000000 -0.000000
RightFoot 2.862537 -6.366468 6.484025
RightToeBase 4.552675 -0.000000 -0.000000
3653
root 0.167299 39.118824 -0.671901 48.588890 -20.084192 -55.850581
Spine 1.291602 17.171106 24.828911
Head -16.166591 -32.998437 32.200783
LeftShoulder -8.152493 -6.348086 13.510573
LeftArm -27.708201 -50.848022 -28.477673
LeftForeArm 1.040712 -0.000000 141.480715
LeftHand -26.297289 -0.000000 25.977890
LeftHandThumb1 -26.253704 0.000000 33.147579
RightShoulder 0.099623 -19.386666 1.530173
RightArm 27.195132 -23.536909 48.339029
RightForeArm 155.468984 -0.000000 74.197997
RightHand 2.042922 -0.000000 3.751918
RightHandThumb1 -24.326973 -0.000000 -32.862282
LeftUpLeg -27.230710 23.017046 42.257329
LeftLeg 23.130609 -0.000000 -0.000000
LeftFoot -21.190930 10.218328 -12.651842
LeftToeBase 14.221218 -0.000000 -0.000000
RightUpLeg -47.187270 -24.857280 -17.825829
RightLeg 95.955216 -0.000000 -0.000000
RightFoot 3.243156 -6.112055 6.394214
RightToeBase 4.574766 -0.000000 -0.000000
3654
root 0.141928 39.118050 -0.684960 48.410536 -19.781996 -55.821469
Spine 1.420192 16.992850 25.049980
Head -16.266192 -32.918978 32.332890
LeftShoulder -8.151946 -6.358315 13.503796
LeftArm -27.771022 -50.989157 -28.160117
LeftForeArm 0.741080 0.000000 141.292309
LeftHand -26.320883 0.000000 26.007843
LeftHandThumb1 -26.253704 0.000000 33.147579
RightShoulder 0.128855 -19.325371 1.576417
RightArm 27.222849 -23.426808 48.295182
RightForeArm 155.362729 0.000000 74.193570
RightHand 1.992206 -0.000000 3.744835
RightHandThumb1 -24.326973 -0.000000 -32.862282
LeftUpLeg -27.307150 22.895827 42.451596
LeftLeg 23.164949 -0.000000 -0.000000
LeftFoot -21.169539 10.131124 -12.606350
LeftToeBase 14.158132 -0.000000 -0.000000
RightUpLeg -47.041065 -24.862277 -17.798781
RightLeg 96.491683 -0.000000 -0.000000
RightFoot 3.530250 -5.927335 6.442768
RightToeBase 4.720007 -0.000000 -0.000000
3655
root 0.118737 39.119910 -0.707094 48.372113 -19.568434 -55.819216
Spine 1.405879 16.964066 25.113427
Head -16.292579 -32.869195 32.577766
LeftShoulder -8.107388 -6.422493 13.565629
LeftArm -27.947400 -51.052510 -27.702288
LeftForeArm 0.432551 -0.000000 141.076752
LeftHand -26.268952 -0.000000 26.056221
LeftHandThumb1 -26.253704 0.000000 33.147579
RightShoulder 0.108159 -19.300158 1.708194
RightArm 27.280594 -23.332581 48.242596
RightForeArm 155.227359 0.000000 74.177420
RightHand 2.039486 -0.000000 3.954193
RightHandThumb1 -24.326973 -0.000000 -32.862282
LeftUpLeg -27.433413 22.936903 42.570119
LeftLeg 23.176790 -0.000000 -0.000000
LeftFoot -21.111114 10.052661 -12.539220
LeftToeBase 14.121749 -0.000000 -0.000000
RightUpLeg -47.120901 -24.827210 -17.688908
RightLeg 97.067715 -0.000000 -0.000000
RightFoot 3.796149 -5.792964 6.426426
RightToeBase 4.636387 -0.000000 -0.000000
3656
root 0.098799 39.119983 -0.724418 48.270624 -19.366738 -55.756254
Spine 1.434599 16.866870 25.151197
Head -16.329208 -32.815837 32.780579
LeftShoulder -8.062803 -6.477522 13.595440
LeftArm -28.132064 -51.132325 -27.229073
LeftForeArm 0.141512 -0.000000 140.855068
LeftHand -26.254949 -0.000000 26.059687
LeftHandThumb1 -26.253704 0.000000 33.147579
RightShoulder 0.121256 -19.289606 1.820940
RightArm 27.320092 -23.190499 48.214198
RightForeArm 155.083948 0.000000 74.149182
RightHand 2.052653 0.000000 4.132209
RightHandThumb1 -24.326973 -0.000000 -32.862282
LeftUpLeg -27.536991 22.879032 42.644047
LeftLeg 23.177772 -0.000000 -0.000000
LeftFoot -21.064268 9.991209 -12.443007
LeftToeBase 14.080419 -0.000000 -0.000000
RightUpLeg -47.135168 -24.801701 -17.636704
RightLeg 97.635565 -0.000000 -0.000000
RightFoot 3.998155 -5.616597 6.554170
RightToeBase 4.521797 -0.000000 -0.000000
